<svg xmlns="http://www.w3.org/2000/svg" width="22" height="22" viewBox="0 0 22 22">
  <defs>
    <style>
      .cls-1 {
        fill: #000;
        fill-rule: evenodd;
      }
    </style>
  </defs>
  <path id="_" data-name="ïŠ" class="cls-1" d="M1522.73,69.63l-0.43,3.843a0.773,0.773,0,0,0,.19.614,0.765,0.765,0,0,0,.59.258h20.43a0.765,0.765,0,0,0,.59-0.258,0.819,0.819,0,0,0,.2-0.614l-0.43-3.843h-21.14Zm19.74-10.8a0.772,0.772,0,0,0-.53-0.2h-3.14V60.2a1.571,1.571,0,0,1-1.58,1.571,1.523,1.523,0,0,1-1.11-.46,1.541,1.541,0,0,1-.46-1.111V58.63h-4.71V60.2a1.541,1.541,0,0,1-.46,1.111,1.523,1.523,0,0,1-1.11.46,1.571,1.571,0,0,1-1.57-1.571V58.63h-3.15a0.772,0.772,0,0,0-.53.2,0.791,0.791,0,0,0-.25.5l-1.06,9.514h20.97l-1.06-9.514A0.791,0.791,0,0,0,1542.47,58.833Zm-5.84-5.107a4.715,4.715,0,0,0-8.05,3.333V60.2a0.791,0.791,0,0,0,.79.786,0.762,0.762,0,0,0,.55-0.233,0.774,0.774,0,0,0,.23-0.552V57.059a3.145,3.145,0,0,1,6.29,0V60.2a0.774,0.774,0,0,0,.23.552,0.777,0.777,0,0,0,1.11,0,0.774,0.774,0,0,0,.23-0.552V57.059A4.544,4.544,0,0,0,1536.63,53.726Z" transform="translate(-1522.28 -52.344)"/>
</svg>
