<svg xmlns="http://www.w3.org/2000/svg" width="20.44" height="20.438" viewBox="0 0 20.44 20.438">
  <defs>
    <style>
      .cls-1 {
        fill: #fff;
        fill-rule: evenodd;
      }
    </style>
  </defs>
  <path id="Search" class="cls-1" d="M1596.83,67.764a5.5,5.5,0,1,1,3.89-1.614A5.281,5.281,0,0,1,1596.83,67.764Zm11.33,3.609-4.21-4.211a8.644,8.644,0,0,0,.84-8.256,8.465,8.465,0,0,0-1.84-2.762,8.665,8.665,0,0,0-9.48-1.842,8.8,8.8,0,0,0-2.76,1.842,8.708,8.708,0,0,0,0,12.24,8.8,8.8,0,0,0,2.76,1.841,8.511,8.511,0,0,0,3.36.681,8.4,8.4,0,0,0,4.9-1.522l4.21,4.2a1.466,1.466,0,0,0,1.11.466,1.6,1.6,0,0,0,1.57-1.571,1.482,1.482,0,0,0-.46-1.1h0Z" transform="translate(-1588.19 -53.625)"/>
</svg>
